PathFileType	4	(X/Y/Z)	RBDS028static.trc
DataRate	CameraRate	NumFrames	NumMarkers	Units	OrigDataRate	OrigDataStartFrame	OrigNumFrames
150.000000	150.000000	4	48	mm	150.000000	0	150
Frame#	Time	L.Ankle			L.Ankle.Medial			L.ASIS			L.GTR			L.Heel.Bottom			L.Heel.Lateral			L.Heel.Top			L.HF			L.Iliac.Crest			L.Knee			L.Knee.Medial			L.MT1			L.MT2			L.MT5			L.PSIS			L.Shank.Bottom.Lateral			L.Shank.Bottom.Medial			L.Shank.Top.Lateral			L.Shank.Top.Medial			L.Thigh.Bottom.Lateral			L.Thigh.Bottom.Medial			L.Thigh.Top.Lateral			L.Thigh.Top.Medial			L.TT			R.Ankle			R.Ankle.Medial			R.ASIS			R.GTR			R.Heel.Bottom			R.Heel.Lateral			R.Heel.Top			R.HF			R.Iliac.Crest			R.Knee			R.Knee.Medial			R.MT1			R.MT2			R.MT5			R.PSIS			R.Shank.Bottom.Lateral			R.Shank.Bottom.Medial			R.Shank.Top.Lateral			R.Shank.Top.Medial			R.Thigh.Bottom.Lateral			R.Thigh.Bottom.Medial			R.Thigh.Top.Lateral			R.Thigh.Top.Medial			R.TT			
		X1	Y1	Z1	X2	Y2	Z2	X3	Y3	Z3	X4	Y4	Z4	X5	Y5	Z5	X6	Y6	Z6	X7	Y7	Z7	X8	Y8	Z8	X9	Y9	Z9	X10	Y10	Z10	X11	Y11	Z11	X12	Y12	Z12	X13	Y13	Z13	X14	Y14	Z14	X15	Y15	Z15	X16	Y16	Z16	X17	Y17	Z17	X18	Y18	Z18	X19	Y19	Z19	X20	Y20	Z20	X21	Y21	Z21	X22	Y22	Z22	X23	Y23	Z23	X24	Y24	Z24	X25	Y25	Z25	X26	Y26	Z26	X27	Y27	Z27	X28	Y28	Z28	X29	Y29	Z29	X30	Y30	Z30	X31	Y31	Z31	X32	Y32	Z32	X33	Y33	Z33	X34	Y34	Z34	X35	Y35	Z35	X36	Y36	Z36	X37	Y37	Z37	X38	Y38	Z38	X39	Y39	Z39	X40	Y40	Z40	X41	Y41	Z41	X42	Y42	Z42	X43	Y43	Z43	X44	Y44	Z44	X45	Y45	Z45	X46	Y46	Z46	X47	Y47	Z47	X48	Y48	Z48	

1	0	711.4236450195313	92.20738220214844	1050.748413085938	729.7955322265625	106.2560043334961	1133.12451171875	819.989501953125	895.203857421875	1106.952026367188	775.49365234375	807.7479858398438	1062.549682617188	637.9349365234375	38.35414123535156	1087.439086914063	667.9730224609375	55.57092666625977	1044.419189453125	648.5589599609375	82.768310546875	1088.267456054688	740.2393798828125	413.1487121582031	1051.341186523438	754.8910522460938	945.2384643554688	1079.032592773438	742.29736328125	477.2896423339844	1058.955322265625	728.1068725585938	453.9324951171875	1171.843017578125	855.1591186523438	53.61730194091797	1131.752075195313	857.7604370117188	66.44771575927734	1084.374389648438	823.2028198242188	46.71825790405273	1021.295043945313	664.5266723632813	923.1825561523438	1177.896484375	712.0316772460938	171.0413665771484	1043.720458984375	672.869873046875	168.1055603027344	1076.038330078125	702.4791870117188	250.5919189453125	1032.926025390625	664.4638061523438	252.7132568359375	1069.938232421875	763.5533447265625	576.1767578125	1039.541748046875	696.608154296875	576.4652099609375	1068.015258789063	761.559814453125	686.4307250976563	1037.245971679688	699.5250854492188	685.6026611328125	1069.02783203125	787.5731811523438	398.6972961425781	1103.666381835938	706.55322265625	98.43605804443359	1406.993530273438	725.872802734375	107.6881866455078	1324.9150390625	815.2178955078125	902.7830810546875	1346.7861328125	767.2598876953125	816.0997314453125	1392.161865234375	636.5472412109375	37.86626434326172	1369.267700195313	666.4360961914063	58.91535186767578	1410.9970703125	646.53271484375	83.14398193359375	1367.866333007813	731.2513427734375	419.7151184082031	1403.534301757813	761.5501708984375	962.2760009765625	1367.116577148438	733.1754760742188	482.2196960449219	1396.398803710938	728.6407470703125	458.3132934570313	1280.217041015625	853.3436889648438	54.07277297973633	1331.689697265625	857.7173461914063	64.61582183837891	1380.004272460938	819.603271484375	46.70442962646484	1441.639770507813	664.51220703125	926.3838500976563	1270.758666992188	704.6561279296875	177.8220977783203	1414.51123046875	665.3014526367188	177.1167144775391	1374.413696289063	692.6470947265625	257.896240234375	1421.820434570313	656.9578857421875	256.5855102539063	1381.6396484375	740.9443359375	570.2835693359375	1410.751708984375	681.2238159179688	571.3931884765625	1370.328247070313	741.697998046875	680.8085327148438	1410.007202148438	684.8575439453125	681.2572021484375	1371.866943359375	776.1638793945313	396.1842041015625	1358.084594726563	
2	0.006666666666666667	711.4330444335938	92.19216156005859	1050.741333007813	729.7918090820313	106.2653961181641	1133.1162109375	819.9342041015625	895.2049560546875	1106.891479492188	775.4445190429688	807.7570190429688	1062.507568359375	637.9336547851563	38.35385894775391	1087.443725585938	667.9717407226563	55.56441879272461	1044.416015625	648.5549926757813	82.75868988037109	1088.256713867188	740.239990234375	413.1396179199219	1051.323364257813	754.84228515625	945.2393798828125	1078.981811523438	742.2763061523438	477.2908630371094	1058.923461914063	728.076904296875	453.943603515625	1171.800659179688	855.1498413085938	53.61223983764648	1131.761474609375	857.7713012695313	66.43872833251953	1084.376220703125	823.2088012695313	46.71997833251953	1021.295166015625	664.468505859375	923.18701171875	1177.826416015625	712.0226440429688	171.0271301269531	1043.703491210938	672.8546142578125	168.0967407226563	1076.02685546875	702.4782104492188	250.5846862792969	1032.906982421875	664.4557495117188	252.6973724365234	1069.914672851563	763.5223999023438	576.17724609375	1039.481689453125	696.5724487304688	576.4655151367188	1067.950561523438	761.5385131835938	686.4207153320313	1037.19580078125	699.4910278320313	685.598388671875	1068.962524414063	787.5498657226563	398.6973876953125	1103.642700195313	706.56005859375	98.42617034912109	1407.000122070313	725.8905029296875	107.6834716796875	1324.91162109375	815.1280517578125	902.7869262695313	1346.752685546875	767.1787719726563	816.1033325195313	1392.092895507813	636.54150390625	37.87377548217773	1369.265625	666.4493408203125	58.9079704284668	1411.001708984375	646.5369873046875	83.14270782470703	1367.866333007813	731.2196044921875	419.7212219238281	1403.515502929688	761.472900390625	962.2800903320313	1367.071655273438	733.1279296875	482.2172546386719	1396.368774414063	728.608154296875	458.3058776855469	1280.191528320313	853.3464965820313	54.07287979125977	1331.697631835938	857.715087890625	64.61588287353516	1380.012329101563	819.6028442382813	46.69289016723633	1441.649291992188	664.4485473632813	926.3846435546875	1270.692138671875	704.6511840820313	177.8215942382813	1414.5048828125	665.2965698242188	177.1069183349609	1374.402099609375	692.6292114257813	257.9032287597656	1421.802856445313	656.943603515625	256.5891418457031	1381.62109375	740.8895874023438	570.2877197265625	1410.722290039063	681.1773071289063	571.3898315429688	1370.261962890625	741.6206665039063	680.8123168945313	1409.958740234375	684.7923583984375	681.2506103515625	1371.808349609375	776.1454467773438	396.188720703125	1358.071411132813	
3	0.01333333333333333	711.4327392578125	92.19532012939453	1050.7314453125	729.7943725585938	106.2659606933594	1133.097412109375	819.8693237304688	895.2317504882813	1106.84033203125	775.401123046875	807.759521484375	1062.44677734375	637.9310913085938	38.33018112182617	1087.446044921875	667.965576171875	55.5549430847168	1044.409545898438	648.5421752929688	82.7569580078125	1088.25390625	740.2127685546875	413.1318359375	1051.29150390625	754.7987060546875	945.2553100585938	1078.928344726563	742.2369384765625	477.2842102050781	1058.87939453125	728.0263061523438	453.9505920410156	1171.757568359375	855.147216796875	53.61469268798828	1131.7568359375	857.7626342773438	66.43119812011719	1084.387451171875	823.2054443359375	46.72559356689453	1021.295959472656	664.4110107421875	923.1817626953125	1177.767333984375	712.021240234375	171.0359497070313	1043.696655273438	672.840576171875	168.0757751464844	1076.005615234375	702.4656372070313	250.5823822021484	1032.896362304688	664.4326782226563	252.6851196289063	1069.88525390625	763.478271484375	576.1781005859375	1039.431640625	696.5375366210938	576.4660034179688	1067.890502929688	761.50927734375	686.419677734375	1037.155883789063	699.4548950195313	685.6006469726563	1068.911010742188	787.5252075195313	398.70654296875	1103.624145507813	706.5549926757813	98.43280792236328	1406.989013671875	725.8881225585938	107.68115234375	1324.912475585938	815.0551147460938	902.7962036132813	1346.703247070313	767.1002197265625	816.10888671875	1392.043823242188	636.5430908203125	37.868896484375	1369.274047851563	666.4415893554688	58.90995025634766	1411.001220703125	646.5404052734375	83.14685821533203	1367.868530273438	731.1954956054688	419.7196350097656	1403.469848632813	761.3903198242188	962.2634887695313	1367.01953125	733.0883178710938	482.2228088378906	1396.331420898438	728.5806274414063	458.2926940917969	1280.151000976563	853.3441162109375	54.07867050170898	1331.691040039063	857.7144775390625	64.61688995361328	1380.013427734375	819.6044311523438	46.69285583496094	1441.648681640625	664.371826171875	926.3817749023438	1270.627075195313	704.6334228515625	177.8359680175781	1414.486206054688	665.2938842773438	177.1001281738281	1374.393798828125	692.6046752929688	257.9075927734375	1421.78662109375	656.9339599609375	256.5888366699219	1381.5986328125	740.8272705078125	570.2903442382813	1410.683349609375	681.1271362304688	571.3806762695313	1370.2099609375	741.544677734375	680.8228759765625	1409.91259765625	684.7246704101563	681.2494506835938	1371.73828125	776.114501953125	396.1885681152344	1358.026611328125	
4	0.02	711.4332275390625	92.18405151367188	1050.714111328125	729.7974243164063	106.265380859375	1133.094482421875	819.816162109375	895.2249755859375	1106.798706054688	775.3631591796875	807.7635498046875	1062.404296875	637.9278564453125	38.33366012573242	1087.430908203125	667.9598388671875	55.54586791992188	1044.397705078125	648.5321044921875	82.74787139892578	1088.235961914063	740.21435546875	413.1238403320313	1051.245849609375	754.768798828125	945.266357421875	1078.862182617188	742.2155151367188	477.2809448242188	1058.831176757813	727.9669189453125	453.9681396484375	1171.722900390625	855.1467895507813	53.61606216430664	1131.767211914063	857.77978515625	66.42747497558594	1084.37255859375	823.2072143554688	46.72443389892578	1021.305725097656	664.3556518554688	923.1826171875	1177.693237304688	712.0189819335938	171.0051879882813	1043.6787109375	672.8237915039063	168.0675048828125	1075.989135742188	702.4666137695313	250.5623931884766	1032.874145507813	664.4254150390625	252.6710815429688	1069.855590820313	763.4603271484375	576.1624145507813	1039.389892578125	696.5009765625	576.4556884765625	1067.827514648438	761.4730834960938	686.4135131835938	1037.109619140625	699.419189453125	685.60107421875	1068.828125	787.4874267578125	398.6915283203125	1103.583740234375	706.5523071289063	98.42559814453125	1406.986328125	725.9025268554688	107.6769866943359	1324.909545898438	814.9876098632813	902.7987060546875	1346.654663085938	767.0276489257813	816.117919921875	1391.98779296875	636.5431518554688	37.86610412597656	1369.26708984375	666.4494018554688	58.91599655151367	1411.001831054688	646.5379028320313	83.14212036132813	1367.864624023438	731.1704711914063	419.7218322753906	1403.440795898438	761.3271484375	962.2543334960938	1366.9697265625	733.05029296875	482.2268981933594	1396.299926757813	728.5509643554688	458.2870483398438	1280.119506835938	853.35302734375	54.07180786132813	1331.706909179688	857.716552734375	64.61409759521484	1380.003051757813	819.6021728515625	46.68925857543945	1441.643188476563	664.3068237304688	926.375244140625	1270.553100585938	704.6239624023438	177.8302154541016	1414.481201171875	665.2786865234375	177.1027679443359	1374.376831054688	692.5933227539063	257.9054870605469	1421.764526367188	656.9161376953125	256.5734252929688	1381.576171875	740.781982421875	570.2914428710938	1410.637573242188	681.0812377929688	571.37646484375	1370.172607421875	741.4675903320313	680.8197631835938	1409.854858398438	684.0142211914063	681.3243408203125	1371.722412109375	776.0867919921875	396.1929626464844	1358.00146484375	
